<svg
  width="1280"
  height="539"
  viewBox="0 0 1280 539"
  fill="none"
  xmlns="http://www.w3.org/2000/svg"
>
  <g stroke="#7E452B" stroke-opacity="0.05">
    <line y1="0.5" x2="1280" y2="0.5" />
    <line y1="108.1" x2="1280" y2="108.1" />
    <line y1="215.7" x2="1280" y2="215.7" />
    <line y1="323.3" x2="1280" y2="323.3" />
    <line y1="430.9" x2="1280" y2="430.9" />
    <line y1="538.5" x2="1280" y2="538.5" />
    <line x1="82.5" y1="1" x2="82.5" y2="394" />
    <line x1="161.1" y1="1" x2="161.1" y2="394" />
    <line x1="239.7" y1="1" x2="239.7" y2="394" />
    <line x1="318.3" y1="1" x2="318.3" y2="394" />
    <line x1="396.9" y1="1" x2="396.9" y2="394" />
    <line x1="475.5" y1="1" x2="475.5" y2="394" />
    <line x1="554.1" y1="1" x2="554.1" y2="394" />
    <line x1="632.7" y1="1" x2="632.7" y2="394" />
    <line x1="711.3" y1="1" x2="711.3" y2="394" />
    <line x1="789.9" y1="1" x2="789.9" y2="394" />
    <line x1="868.5" y1="1" x2="868.5" y2="394" />
    <line x1="947.1" y1="1" x2="947.1" y2="394" />
    <line x1="1025.7" y1="1" x2="1025.7" y2="394" />
    <line x1="1104.3" y1="1" x2="1104.3" y2="394" />
    <line x1="1182.9" y1="1" x2="1182.9" y2="394" />
    <line x1="1261.5" y1="1" x2="1261.5" y2="394" />
  </g>

  <ellipse cx="682" cy="266" rx="500" ry="251" fill="#FCFBFC" />
</svg>
